<mxfile host="app.diagrams.net" modified="2022-12-25T15:14:54.248Z" agent="5.0 (Macintosh; Intel Mac OS X 10_15_7) AppleWebKit/537.36 (KHTML, like Gecko) Chrome/107.0.0.0 Safari/537.36" etag="2zPskpTPkIf59HfOHZsQ" version="20.7.4" type="github">
  <diagram id="C5RBs43oDa-KdzZeNtuy" name="Page-1">
    <mxGraphModel dx="1318" dy="822" grid="1" gridSize="10" guides="1" tooltips="1" connect="1" arrows="1" fold="1" page="1" pageScale="1" pageWidth="827" pageHeight="1169" math="0" shadow="0">
      <root>
        <mxCell id="WIyWlLk6GJQsqaUBKTNV-0" />
        <mxCell id="WIyWlLk6GJQsqaUBKTNV-1" parent="WIyWlLk6GJQsqaUBKTNV-0" />
        <mxCell id="FZfnnxiT1R2ENdX9eJZD-7" style="edgeStyle=orthogonalEdgeStyle;rounded=0;orthogonalLoop=1;jettySize=auto;html=1;entryX=0.5;entryY=0;entryDx=0;entryDy=0;" edge="1" parent="WIyWlLk6GJQsqaUBKTNV-1" source="WIyWlLk6GJQsqaUBKTNV-3" target="FZfnnxiT1R2ENdX9eJZD-0">
          <mxGeometry relative="1" as="geometry" />
        </mxCell>
        <mxCell id="WIyWlLk6GJQsqaUBKTNV-3" value="启动小程序" style="rounded=1;whiteSpace=wrap;html=1;fontSize=12;glass=0;strokeWidth=1;shadow=0;" parent="WIyWlLk6GJQsqaUBKTNV-1" vertex="1">
          <mxGeometry x="180" y="80" width="120" height="40" as="geometry" />
        </mxCell>
        <mxCell id="FZfnnxiT1R2ENdX9eJZD-13" value="" style="edgeStyle=orthogonalEdgeStyle;rounded=0;orthogonalLoop=1;jettySize=auto;html=1;" edge="1" parent="WIyWlLk6GJQsqaUBKTNV-1" source="FZfnnxiT1R2ENdX9eJZD-0" target="FZfnnxiT1R2ENdX9eJZD-12">
          <mxGeometry relative="1" as="geometry" />
        </mxCell>
        <mxCell id="FZfnnxiT1R2ENdX9eJZD-0" value="app全局函数执行" style="rounded=0;whiteSpace=wrap;html=1;" vertex="1" parent="WIyWlLk6GJQsqaUBKTNV-1">
          <mxGeometry x="160" y="160" width="160" height="40" as="geometry" />
        </mxCell>
        <mxCell id="FZfnnxiT1R2ENdX9eJZD-15" value="" style="edgeStyle=orthogonalEdgeStyle;rounded=0;orthogonalLoop=1;jettySize=auto;html=1;" edge="1" parent="WIyWlLk6GJQsqaUBKTNV-1" source="FZfnnxiT1R2ENdX9eJZD-1" target="FZfnnxiT1R2ENdX9eJZD-4">
          <mxGeometry relative="1" as="geometry" />
        </mxCell>
        <mxCell id="FZfnnxiT1R2ENdX9eJZD-1" value="重写Page/Component全局函数" style="rounded=0;whiteSpace=wrap;html=1;" vertex="1" parent="WIyWlLk6GJQsqaUBKTNV-1">
          <mxGeometry x="147.5" y="320" width="185" height="40" as="geometry" />
        </mxCell>
        <mxCell id="FZfnnxiT1R2ENdX9eJZD-10" value="N" style="edgeStyle=orthogonalEdgeStyle;rounded=0;orthogonalLoop=1;jettySize=auto;html=1;exitX=1;exitY=0.5;exitDx=0;exitDy=0;entryX=0;entryY=0.5;entryDx=0;entryDy=0;" edge="1" parent="WIyWlLk6GJQsqaUBKTNV-1" source="FZfnnxiT1R2ENdX9eJZD-4" target="FZfnnxiT1R2ENdX9eJZD-9">
          <mxGeometry relative="1" as="geometry" />
        </mxCell>
        <mxCell id="FZfnnxiT1R2ENdX9eJZD-16" value="" style="edgeStyle=orthogonalEdgeStyle;rounded=0;orthogonalLoop=1;jettySize=auto;html=1;" edge="1" parent="WIyWlLk6GJQsqaUBKTNV-1" source="FZfnnxiT1R2ENdX9eJZD-4" target="FZfnnxiT1R2ENdX9eJZD-11">
          <mxGeometry relative="1" as="geometry" />
        </mxCell>
        <mxCell id="FZfnnxiT1R2ENdX9eJZD-4" value="是否可注入？" style="rhombus;whiteSpace=wrap;html=1;shadow=0;fontFamily=Helvetica;fontSize=12;align=center;strokeWidth=1;spacing=6;spacingTop=-4;" vertex="1" parent="WIyWlLk6GJQsqaUBKTNV-1">
          <mxGeometry x="190" y="400" width="100" height="60" as="geometry" />
        </mxCell>
        <mxCell id="FZfnnxiT1R2ENdX9eJZD-9" value="当前页面/组件不做任何处理" style="rounded=0;whiteSpace=wrap;html=1;" vertex="1" parent="WIyWlLk6GJQsqaUBKTNV-1">
          <mxGeometry x="370" y="410" width="180" height="40" as="geometry" />
        </mxCell>
        <mxCell id="FZfnnxiT1R2ENdX9eJZD-19" value="" style="edgeStyle=orthogonalEdgeStyle;rounded=0;orthogonalLoop=1;jettySize=auto;html=1;" edge="1" parent="WIyWlLk6GJQsqaUBKTNV-1" source="FZfnnxiT1R2ENdX9eJZD-11" target="FZfnnxiT1R2ENdX9eJZD-18">
          <mxGeometry relative="1" as="geometry" />
        </mxCell>
        <mxCell id="FZfnnxiT1R2ENdX9eJZD-11" value="页面/组件注入全局状态管理器中状态、行为、生命周期事件等" style="rounded=0;whiteSpace=wrap;html=1;" vertex="1" parent="WIyWlLk6GJQsqaUBKTNV-1">
          <mxGeometry x="143.75" y="490" width="192.5" height="50" as="geometry" />
        </mxCell>
        <mxCell id="FZfnnxiT1R2ENdX9eJZD-14" value="" style="edgeStyle=orthogonalEdgeStyle;rounded=0;orthogonalLoop=1;jettySize=auto;html=1;" edge="1" parent="WIyWlLk6GJQsqaUBKTNV-1" source="FZfnnxiT1R2ENdX9eJZD-12" target="FZfnnxiT1R2ENdX9eJZD-1">
          <mxGeometry relative="1" as="geometry" />
        </mxCell>
        <mxCell id="FZfnnxiT1R2ENdX9eJZD-12" value="全局状态管理器执行" style="rounded=0;whiteSpace=wrap;html=1;" vertex="1" parent="WIyWlLk6GJQsqaUBKTNV-1">
          <mxGeometry x="160" y="240" width="160" height="40" as="geometry" />
        </mxCell>
        <mxCell id="FZfnnxiT1R2ENdX9eJZD-18" value="结束" style="rounded=1;whiteSpace=wrap;html=1;fontSize=12;glass=0;strokeWidth=1;shadow=0;" vertex="1" parent="WIyWlLk6GJQsqaUBKTNV-1">
          <mxGeometry x="180" y="580" width="120" height="40" as="geometry" />
        </mxCell>
      </root>
    </mxGraphModel>
  </diagram>
</mxfile>
